<mxfile host="app.diagrams.net" modified="2023-01-31T22:39:24.951Z" agent="5.0 (Macintosh; Intel Mac OS X 10_15_7) AppleWebKit/537.36 (KHTML, like Gecko) Chrome/109.0.0.0 Safari/537.36" etag="Em3OKiRj2jxqU4Jjgin3" version="20.8.14" type="github">
  <diagram name="Page-1" id="Rdl5_aCQUgi0T_vHQ2Hv">
    <mxGraphModel dx="1242" dy="795" grid="1" gridSize="10" guides="1" tooltips="1" connect="1" arrows="1" fold="1" page="1" pageScale="1" pageWidth="850" pageHeight="1100" math="0" shadow="0">
      <root>
        <mxCell id="0" />
        <mxCell id="1" parent="0" />
        <mxCell id="DndnFxEj-cYfsKyhcFnI-56" style="edgeStyle=orthogonalEdgeStyle;rounded=0;orthogonalLoop=1;jettySize=auto;html=1;exitX=0.5;exitY=1;exitDx=0;exitDy=0;entryX=0.5;entryY=0;entryDx=0;entryDy=0;" edge="1" parent="1" source="DndnFxEj-cYfsKyhcFnI-1" target="DndnFxEj-cYfsKyhcFnI-5">
          <mxGeometry relative="1" as="geometry" />
        </mxCell>
        <mxCell id="DndnFxEj-cYfsKyhcFnI-1" value="" style="whiteSpace=wrap;html=1;aspect=fixed;" vertex="1" parent="1">
          <mxGeometry x="1080" y="840" width="80" height="80" as="geometry" />
        </mxCell>
        <mxCell id="DndnFxEj-cYfsKyhcFnI-50" style="edgeStyle=orthogonalEdgeStyle;rounded=0;orthogonalLoop=1;jettySize=auto;html=1;exitX=1;exitY=0.5;exitDx=0;exitDy=0;entryX=0;entryY=0.5;entryDx=0;entryDy=0;" edge="1" parent="1" source="DndnFxEj-cYfsKyhcFnI-2" target="DndnFxEj-cYfsKyhcFnI-1">
          <mxGeometry relative="1" as="geometry" />
        </mxCell>
        <mxCell id="DndnFxEj-cYfsKyhcFnI-52" style="edgeStyle=orthogonalEdgeStyle;rounded=0;orthogonalLoop=1;jettySize=auto;html=1;exitX=0.5;exitY=0;exitDx=0;exitDy=0;entryX=0.5;entryY=1;entryDx=0;entryDy=0;" edge="1" parent="1" source="DndnFxEj-cYfsKyhcFnI-2" target="DndnFxEj-cYfsKyhcFnI-14">
          <mxGeometry relative="1" as="geometry" />
        </mxCell>
        <mxCell id="DndnFxEj-cYfsKyhcFnI-2" value="" style="whiteSpace=wrap;html=1;aspect=fixed;" vertex="1" parent="1">
          <mxGeometry x="880" y="840" width="80" height="80" as="geometry" />
        </mxCell>
        <mxCell id="DndnFxEj-cYfsKyhcFnI-36" style="edgeStyle=orthogonalEdgeStyle;rounded=0;orthogonalLoop=1;jettySize=auto;html=1;exitX=0.5;exitY=1;exitDx=0;exitDy=0;entryX=0.5;entryY=0;entryDx=0;entryDy=0;" edge="1" parent="1" source="DndnFxEj-cYfsKyhcFnI-3" target="DndnFxEj-cYfsKyhcFnI-7">
          <mxGeometry relative="1" as="geometry" />
        </mxCell>
        <mxCell id="DndnFxEj-cYfsKyhcFnI-3" value="" style="whiteSpace=wrap;html=1;aspect=fixed;" vertex="1" parent="1">
          <mxGeometry x="480" y="840" width="80" height="80" as="geometry" />
        </mxCell>
        <mxCell id="DndnFxEj-cYfsKyhcFnI-46" style="edgeStyle=orthogonalEdgeStyle;rounded=0;orthogonalLoop=1;jettySize=auto;html=1;" edge="1" parent="1" source="DndnFxEj-cYfsKyhcFnI-4" target="DndnFxEj-cYfsKyhcFnI-2">
          <mxGeometry relative="1" as="geometry" />
        </mxCell>
        <mxCell id="DndnFxEj-cYfsKyhcFnI-4" value="" style="whiteSpace=wrap;html=1;aspect=fixed;" vertex="1" parent="1">
          <mxGeometry x="680" y="840" width="80" height="80" as="geometry" />
        </mxCell>
        <mxCell id="DndnFxEj-cYfsKyhcFnI-58" style="edgeStyle=orthogonalEdgeStyle;rounded=0;orthogonalLoop=1;jettySize=auto;html=1;exitX=0;exitY=0.5;exitDx=0;exitDy=0;" edge="1" parent="1" source="DndnFxEj-cYfsKyhcFnI-5" target="DndnFxEj-cYfsKyhcFnI-6">
          <mxGeometry relative="1" as="geometry" />
        </mxCell>
        <mxCell id="DndnFxEj-cYfsKyhcFnI-5" value="" style="whiteSpace=wrap;html=1;aspect=fixed;" vertex="1" parent="1">
          <mxGeometry x="1080" y="1040" width="80" height="80" as="geometry" />
        </mxCell>
        <mxCell id="DndnFxEj-cYfsKyhcFnI-6" value="" style="whiteSpace=wrap;html=1;aspect=fixed;" vertex="1" parent="1">
          <mxGeometry x="880" y="1040" width="80" height="80" as="geometry" />
        </mxCell>
        <mxCell id="DndnFxEj-cYfsKyhcFnI-7" value="" style="whiteSpace=wrap;html=1;aspect=fixed;" vertex="1" parent="1">
          <mxGeometry x="480" y="1040" width="80" height="80" as="geometry" />
        </mxCell>
        <mxCell id="DndnFxEj-cYfsKyhcFnI-8" value="" style="whiteSpace=wrap;html=1;aspect=fixed;" vertex="1" parent="1">
          <mxGeometry x="680" y="1040" width="80" height="80" as="geometry" />
        </mxCell>
        <mxCell id="DndnFxEj-cYfsKyhcFnI-9" value="" style="whiteSpace=wrap;html=1;aspect=fixed;" vertex="1" parent="1">
          <mxGeometry x="1080" y="440" width="80" height="80" as="geometry" />
        </mxCell>
        <mxCell id="DndnFxEj-cYfsKyhcFnI-65" style="edgeStyle=orthogonalEdgeStyle;rounded=0;orthogonalLoop=1;jettySize=auto;html=1;entryX=1;entryY=0.5;entryDx=0;entryDy=0;" edge="1" parent="1" source="DndnFxEj-cYfsKyhcFnI-10" target="DndnFxEj-cYfsKyhcFnI-12">
          <mxGeometry relative="1" as="geometry" />
        </mxCell>
        <mxCell id="DndnFxEj-cYfsKyhcFnI-10" value="" style="whiteSpace=wrap;html=1;aspect=fixed;" vertex="1" parent="1">
          <mxGeometry x="880" y="440" width="80" height="80" as="geometry" />
        </mxCell>
        <mxCell id="DndnFxEj-cYfsKyhcFnI-19" style="edgeStyle=orthogonalEdgeStyle;rounded=0;orthogonalLoop=1;jettySize=auto;html=1;exitX=0.5;exitY=1;exitDx=0;exitDy=0;entryX=0.5;entryY=0;entryDx=0;entryDy=0;" edge="1" parent="1" source="DndnFxEj-cYfsKyhcFnI-11" target="DndnFxEj-cYfsKyhcFnI-15">
          <mxGeometry relative="1" as="geometry" />
        </mxCell>
        <mxCell id="DndnFxEj-cYfsKyhcFnI-11" value="" style="whiteSpace=wrap;html=1;aspect=fixed;" vertex="1" parent="1">
          <mxGeometry x="480" y="440" width="80" height="80" as="geometry" />
        </mxCell>
        <mxCell id="DndnFxEj-cYfsKyhcFnI-12" value="" style="whiteSpace=wrap;html=1;aspect=fixed;" vertex="1" parent="1">
          <mxGeometry x="680" y="440" width="80" height="80" as="geometry" />
        </mxCell>
        <mxCell id="DndnFxEj-cYfsKyhcFnI-13" value="" style="whiteSpace=wrap;html=1;aspect=fixed;" vertex="1" parent="1">
          <mxGeometry x="1080" y="640" width="80" height="80" as="geometry" />
        </mxCell>
        <mxCell id="DndnFxEj-cYfsKyhcFnI-61" style="edgeStyle=orthogonalEdgeStyle;rounded=0;orthogonalLoop=1;jettySize=auto;html=1;exitX=1;exitY=0.5;exitDx=0;exitDy=0;entryX=0;entryY=0.5;entryDx=0;entryDy=0;" edge="1" parent="1" source="DndnFxEj-cYfsKyhcFnI-14" target="DndnFxEj-cYfsKyhcFnI-13">
          <mxGeometry relative="1" as="geometry" />
        </mxCell>
        <mxCell id="DndnFxEj-cYfsKyhcFnI-63" style="edgeStyle=orthogonalEdgeStyle;rounded=0;orthogonalLoop=1;jettySize=auto;html=1;exitX=0.5;exitY=0;exitDx=0;exitDy=0;entryX=0.5;entryY=1;entryDx=0;entryDy=0;" edge="1" parent="1" source="DndnFxEj-cYfsKyhcFnI-14" target="DndnFxEj-cYfsKyhcFnI-10">
          <mxGeometry relative="1" as="geometry" />
        </mxCell>
        <mxCell id="DndnFxEj-cYfsKyhcFnI-14" value="" style="whiteSpace=wrap;html=1;aspect=fixed;" vertex="1" parent="1">
          <mxGeometry x="880" y="640" width="80" height="80" as="geometry" />
        </mxCell>
        <mxCell id="DndnFxEj-cYfsKyhcFnI-25" style="edgeStyle=orthogonalEdgeStyle;rounded=0;orthogonalLoop=1;jettySize=auto;html=1;entryX=0;entryY=0.5;entryDx=0;entryDy=0;" edge="1" parent="1" source="DndnFxEj-cYfsKyhcFnI-15" target="DndnFxEj-cYfsKyhcFnI-16">
          <mxGeometry relative="1" as="geometry" />
        </mxCell>
        <mxCell id="DndnFxEj-cYfsKyhcFnI-28" style="edgeStyle=orthogonalEdgeStyle;rounded=0;orthogonalLoop=1;jettySize=auto;html=1;exitX=0.5;exitY=1;exitDx=0;exitDy=0;entryX=0.5;entryY=0;entryDx=0;entryDy=0;" edge="1" parent="1" source="DndnFxEj-cYfsKyhcFnI-15" target="DndnFxEj-cYfsKyhcFnI-3">
          <mxGeometry relative="1" as="geometry" />
        </mxCell>
        <mxCell id="DndnFxEj-cYfsKyhcFnI-15" value="" style="whiteSpace=wrap;html=1;aspect=fixed;" vertex="1" parent="1">
          <mxGeometry x="480" y="640" width="80" height="80" as="geometry" />
        </mxCell>
        <mxCell id="DndnFxEj-cYfsKyhcFnI-16" value="" style="whiteSpace=wrap;html=1;aspect=fixed;" vertex="1" parent="1">
          <mxGeometry x="680" y="640" width="80" height="80" as="geometry" />
        </mxCell>
        <mxCell id="DndnFxEj-cYfsKyhcFnI-18" value="" style="verticalLabelPosition=bottom;verticalAlign=top;html=1;shape=mxgraph.basic.smiley" vertex="1" parent="1">
          <mxGeometry x="492.5" y="450" width="55" height="50" as="geometry" />
        </mxCell>
        <mxCell id="DndnFxEj-cYfsKyhcFnI-20" value="4" style="text;html=1;strokeColor=none;fillColor=none;align=center;verticalAlign=middle;whiteSpace=wrap;rounded=0;" vertex="1" parent="1">
          <mxGeometry x="490" y="650" width="60" height="30" as="geometry" />
        </mxCell>
        <mxCell id="DndnFxEj-cYfsKyhcFnI-24" value="" style="shape=image;html=1;verticalAlign=top;verticalLabelPosition=bottom;labelBackgroundColor=#ffffff;imageAspect=0;aspect=fixed;image=https://cdn4.iconfinder.com/data/icons/ionicons/512/icon-alert-128.png" vertex="1" parent="1">
          <mxGeometry x="590" y="452" width="48" height="48" as="geometry" />
        </mxCell>
        <mxCell id="DndnFxEj-cYfsKyhcFnI-26" value="5" style="text;html=1;strokeColor=none;fillColor=none;align=center;verticalAlign=middle;whiteSpace=wrap;rounded=0;" vertex="1" parent="1">
          <mxGeometry x="690" y="665" width="60" height="30" as="geometry" />
        </mxCell>
        <mxCell id="DndnFxEj-cYfsKyhcFnI-27" value="0" style="text;html=1;strokeColor=none;fillColor=none;align=center;verticalAlign=middle;whiteSpace=wrap;rounded=0;" vertex="1" parent="1">
          <mxGeometry x="490" y="498" width="60" height="30" as="geometry" />
        </mxCell>
        <mxCell id="DndnFxEj-cYfsKyhcFnI-29" value="8" style="text;html=1;strokeColor=none;fillColor=none;align=center;verticalAlign=middle;whiteSpace=wrap;rounded=0;" vertex="1" parent="1">
          <mxGeometry x="490" y="865" width="60" height="30" as="geometry" />
        </mxCell>
        <mxCell id="DndnFxEj-cYfsKyhcFnI-31" value="" style="shape=image;html=1;verticalAlign=top;verticalLabelPosition=bottom;labelBackgroundColor=#ffffff;imageAspect=0;aspect=fixed;image=https://cdn4.iconfinder.com/data/icons/ionicons/512/icon-alert-128.png" vertex="1" parent="1">
          <mxGeometry x="798" y="656" width="48" height="48" as="geometry" />
        </mxCell>
        <mxCell id="DndnFxEj-cYfsKyhcFnI-32" value="" style="shape=image;html=1;verticalAlign=top;verticalLabelPosition=bottom;labelBackgroundColor=#ffffff;imageAspect=0;aspect=fixed;image=https://cdn4.iconfinder.com/data/icons/ionicons/512/icon-alert-128.png" vertex="1" parent="1">
          <mxGeometry x="696" y="560" width="48" height="48" as="geometry" />
        </mxCell>
        <mxCell id="DndnFxEj-cYfsKyhcFnI-33" value="" style="shape=image;html=1;verticalAlign=top;verticalLabelPosition=bottom;labelBackgroundColor=#ffffff;imageAspect=0;aspect=fixed;image=https://cdn4.iconfinder.com/data/icons/ionicons/512/icon-alert-128.png" vertex="1" parent="1">
          <mxGeometry x="696" y="760" width="48" height="48" as="geometry" />
        </mxCell>
        <mxCell id="DndnFxEj-cYfsKyhcFnI-34" value="" style="shape=image;html=1;verticalAlign=top;verticalLabelPosition=bottom;labelBackgroundColor=#ffffff;imageAspect=0;aspect=fixed;image=https://cdn4.iconfinder.com/data/icons/ionicons/512/icon-alert-128.png" vertex="1" parent="1">
          <mxGeometry x="600" y="856" width="48" height="48" as="geometry" />
        </mxCell>
        <mxCell id="DndnFxEj-cYfsKyhcFnI-39" style="edgeStyle=orthogonalEdgeStyle;rounded=0;orthogonalLoop=1;jettySize=auto;html=1;" edge="1" parent="1" source="DndnFxEj-cYfsKyhcFnI-37">
          <mxGeometry relative="1" as="geometry">
            <mxPoint x="670" y="1085" as="targetPoint" />
          </mxGeometry>
        </mxCell>
        <mxCell id="DndnFxEj-cYfsKyhcFnI-37" value="12" style="text;html=1;strokeColor=none;fillColor=none;align=center;verticalAlign=middle;whiteSpace=wrap;rounded=0;" vertex="1" parent="1">
          <mxGeometry x="490" y="1070" width="60" height="30" as="geometry" />
        </mxCell>
        <mxCell id="DndnFxEj-cYfsKyhcFnI-40" value="13" style="text;html=1;strokeColor=none;fillColor=none;align=center;verticalAlign=middle;whiteSpace=wrap;rounded=0;" vertex="1" parent="1">
          <mxGeometry x="710" y="1090" width="60" height="30" as="geometry" />
        </mxCell>
        <mxCell id="DndnFxEj-cYfsKyhcFnI-42" style="edgeStyle=orthogonalEdgeStyle;rounded=0;orthogonalLoop=1;jettySize=auto;html=1;entryX=0.425;entryY=1.063;entryDx=0;entryDy=0;entryPerimeter=0;" edge="1" parent="1" source="DndnFxEj-cYfsKyhcFnI-41" target="DndnFxEj-cYfsKyhcFnI-4">
          <mxGeometry relative="1" as="geometry" />
        </mxCell>
        <mxCell id="DndnFxEj-cYfsKyhcFnI-41" value="" style="shape=image;html=1;verticalAlign=top;verticalLabelPosition=bottom;labelBackgroundColor=#ffffff;imageAspect=0;aspect=fixed;image=https://cdn2.iconfinder.com/data/icons/halloween-scarry-hand-drawn-black-1/257/09-halloween-pot-potion-venom--128.png" vertex="1" parent="1">
          <mxGeometry x="684" y="1040" width="60" height="60" as="geometry" />
        </mxCell>
        <mxCell id="DndnFxEj-cYfsKyhcFnI-43" value="9" style="text;html=1;strokeColor=none;fillColor=none;align=center;verticalAlign=middle;whiteSpace=wrap;rounded=0;" vertex="1" parent="1">
          <mxGeometry x="690" y="865" width="60" height="30" as="geometry" />
        </mxCell>
        <mxCell id="DndnFxEj-cYfsKyhcFnI-44" value="" style="shape=image;html=1;verticalAlign=top;verticalLabelPosition=bottom;labelBackgroundColor=#ffffff;imageAspect=0;aspect=fixed;image=https://cdn4.iconfinder.com/data/icons/ionicons/512/icon-alert-128.png" vertex="1" parent="1">
          <mxGeometry x="798" y="1056" width="48" height="48" as="geometry" />
        </mxCell>
        <mxCell id="DndnFxEj-cYfsKyhcFnI-47" value="10" style="text;html=1;strokeColor=none;fillColor=none;align=center;verticalAlign=middle;whiteSpace=wrap;rounded=0;" vertex="1" parent="1">
          <mxGeometry x="890" y="865" width="60" height="30" as="geometry" />
        </mxCell>
        <mxCell id="DndnFxEj-cYfsKyhcFnI-51" value="11" style="text;html=1;strokeColor=none;fillColor=none;align=center;verticalAlign=middle;whiteSpace=wrap;rounded=0;" vertex="1" parent="1">
          <mxGeometry x="1090" y="865" width="60" height="30" as="geometry" />
        </mxCell>
        <mxCell id="DndnFxEj-cYfsKyhcFnI-53" value="6" style="text;html=1;strokeColor=none;fillColor=none;align=center;verticalAlign=middle;whiteSpace=wrap;rounded=0;" vertex="1" parent="1">
          <mxGeometry x="890" y="665" width="60" height="30" as="geometry" />
        </mxCell>
        <mxCell id="DndnFxEj-cYfsKyhcFnI-54" value="" style="shape=image;html=1;verticalAlign=top;verticalLabelPosition=bottom;labelBackgroundColor=#ffffff;imageAspect=0;aspect=fixed;image=https://cdn4.iconfinder.com/data/icons/ionicons/512/icon-alert-128.png" vertex="1" parent="1">
          <mxGeometry x="896" y="950" width="48" height="48" as="geometry" />
        </mxCell>
        <mxCell id="DndnFxEj-cYfsKyhcFnI-55" value="" style="shape=image;html=1;verticalAlign=top;verticalLabelPosition=bottom;labelBackgroundColor=#ffffff;imageAspect=0;aspect=fixed;image=https://cdn4.iconfinder.com/data/icons/ionicons/512/icon-alert-128.png" vertex="1" parent="1">
          <mxGeometry x="1096" y="750" width="48" height="48" as="geometry" />
        </mxCell>
        <mxCell id="DndnFxEj-cYfsKyhcFnI-57" value="15" style="text;html=1;strokeColor=none;fillColor=none;align=center;verticalAlign=middle;whiteSpace=wrap;rounded=0;" vertex="1" parent="1">
          <mxGeometry x="1090" y="1065" width="60" height="30" as="geometry" />
        </mxCell>
        <mxCell id="DndnFxEj-cYfsKyhcFnI-59" value="" style="shape=image;html=1;verticalAlign=top;verticalLabelPosition=bottom;labelBackgroundColor=#ffffff;imageAspect=0;aspect=fixed;image=https://cdn2.iconfinder.com/data/icons/free-solid-halloween-icons/24/Wand-128.png" vertex="1" parent="1">
          <mxGeometry x="890" y="1047" width="53" height="53" as="geometry" />
        </mxCell>
        <mxCell id="DndnFxEj-cYfsKyhcFnI-60" value="14" style="text;html=1;strokeColor=none;fillColor=none;align=center;verticalAlign=middle;whiteSpace=wrap;rounded=0;" vertex="1" parent="1">
          <mxGeometry x="900" y="1090" width="60" height="30" as="geometry" />
        </mxCell>
        <mxCell id="DndnFxEj-cYfsKyhcFnI-62" value="7" style="text;html=1;strokeColor=none;fillColor=none;align=center;verticalAlign=middle;whiteSpace=wrap;rounded=0;" vertex="1" parent="1">
          <mxGeometry x="1090" y="665" width="60" height="30" as="geometry" />
        </mxCell>
        <mxCell id="DndnFxEj-cYfsKyhcFnI-69" style="edgeStyle=orthogonalEdgeStyle;rounded=0;orthogonalLoop=1;jettySize=auto;html=1;entryX=0;entryY=0.5;entryDx=0;entryDy=0;" edge="1" parent="1" source="DndnFxEj-cYfsKyhcFnI-64" target="DndnFxEj-cYfsKyhcFnI-9">
          <mxGeometry relative="1" as="geometry" />
        </mxCell>
        <mxCell id="DndnFxEj-cYfsKyhcFnI-64" value="2" style="text;html=1;strokeColor=none;fillColor=none;align=center;verticalAlign=middle;whiteSpace=wrap;rounded=0;" vertex="1" parent="1">
          <mxGeometry x="890" y="465" width="60" height="30" as="geometry" />
        </mxCell>
        <mxCell id="DndnFxEj-cYfsKyhcFnI-66" value="1" style="text;html=1;strokeColor=none;fillColor=none;align=center;verticalAlign=middle;whiteSpace=wrap;rounded=0;" vertex="1" parent="1">
          <mxGeometry x="710" y="490" width="60" height="30" as="geometry" />
        </mxCell>
        <mxCell id="DndnFxEj-cYfsKyhcFnI-67" value="" style="sketch=0;pointerEvents=1;shadow=0;dashed=0;html=1;strokeColor=none;fillColor=#505050;labelPosition=center;verticalLabelPosition=bottom;verticalAlign=top;outlineConnect=0;align=center;shape=mxgraph.office.concepts.book_journal;" vertex="1" parent="1">
          <mxGeometry x="690" y="446" width="41" height="49" as="geometry" />
        </mxCell>
        <mxCell id="DndnFxEj-cYfsKyhcFnI-70" value="3" style="text;html=1;strokeColor=none;fillColor=none;align=center;verticalAlign=middle;whiteSpace=wrap;rounded=0;" vertex="1" parent="1">
          <mxGeometry x="1090" y="465" width="60" height="30" as="geometry" />
        </mxCell>
        <mxCell id="DndnFxEj-cYfsKyhcFnI-72" value="" style="shape=image;html=1;verticalAlign=top;verticalLabelPosition=bottom;labelBackgroundColor=#ffffff;imageAspect=0;aspect=fixed;image=https://cdn4.iconfinder.com/data/icons/ionicons/512/icon-alert-128.png" vertex="1" parent="1">
          <mxGeometry x="1096" y="550" width="48" height="48" as="geometry" />
        </mxCell>
      </root>
    </mxGraphModel>
  </diagram>
</mxfile>
